<svg xmlns="http://www.w3.org/2000/svg" xmlns:xlink="http://www.w3.org/1999/xlink" width="48" height="24">
<symbol id="a">
<path d="M2 5.5C2 4.1 3.1 3 4.5 3h15C20.9 3 22 4.1 22 5.5v10c0 1.4-1.1 2.5-2.5 2.5h-3.1c-.4 0-.8.2-1 .5L13 21.6c-.4.6-1.2.7-1.8.3l-.3-.3-2.4-3.2c-.1-.2-.5-.4-.9-.4H4.5C3.1 18 2 16.9 2 15.5v-10zm6.2 5c0-.7-.6-1.3-1.3-1.3s-1.3.6-1.3 1.3.6 1.3 1.3 1.3 1.3-.6 1.3-1.3zm5 0c0-.7-.6-1.3-1.3-1.3s-1.3.6-1.3 1.3.6 1.3 1.3 1.3 1.3-.6 1.3-1.3zm3.8 1.2c.7 0 1.3-.6 1.3-1.3s-.6-1.2-1.3-1.2-1.3.6-1.3 1.3.6 1.2 1.3 1.2z"/>
</symbol>
<use xlink:href="#a" fill="#bbb"/>
<use xlink:href="#a" x="24" fill="#2b7acd"/>
</svg>