<svg xmlns="http://www.w3.org/2000/svg" width="108" height="40">
<path d="M26.8 22.7c1.3-2.3 2.4-4.9 3.1-7.8h-7.3v-2.6h8.9v-1.5h-8.9V6.4H19c-.6 0-.6.6-.6.6v3.7h-9v1.5h9v2.6h-7.5v1.5h14.5c-.5 1.8-1.2 3.5-2.1 5.1-4.7-1.5-9.7-2.8-12.9-2-2 .5-3.3 1.4-4.1 2.3-3.5 4.2-1 10.7 6.4 10.7 4.4 0 8.6-2.4 11.8-6.4 4.9 2.3 14.5 6.5 14.5 6.5 0 3.3-2.6 5.9-5.9 5.9H7.9c-3.2 0-5.9-2.6-5.9-5.9V7.4c0-3.3 2.6-5.9 5.9-5.9h25.2c3.3 0 5.9 2.6 5.9 5.9v19.1s-1.2-.1-6.5-1.8c-1.5-.5-3.5-1.3-5.7-2zM11 21.6c-.9.1-2.7.5-3.6 1.3-2.9 2.5-1.2 7 4.6 7 3.3 0 6.7-2.2 9.3-5.5-3.7-1.8-6.9-3.1-10.3-2.8z" fill="#00a0e9"/>
<path d="M63.1 10.7h-6.5V8.4h7.6V6.9h-7.5v-3h-3.4c-.4 0-.7.3-.7.7v2.3h-7.5v1.5h7.5v2.3h-6.3v1.4h12.6s-.7 2.7-4.1 5.6c-3.1-2.3-4.1-4.2-4.1-4.2h-3.5c1.4 2.4 3.3 4.3 5.4 5.8-1.9 1.2-4.4 2.4-7.6 3.4v1.7s5-.9 9.8-3.8c4.8 2.8 9.6 3.8 9.6 3.8v-1.6c-3.1-1.1-5.5-2.4-7.5-3.6 2.8-2 5.2-4.8 6.2-8.5zm5.7-6.6l-3.9 9.2h3v10.9h3.2V9.7h-1.2l2.5-5.6h-3.6zm8.3 7.5c-.1-.3-.4-.4-.7-.4h-2.8l2.2 6.9h3.3l-2-6.5zm7.1-7.4h-3.4v3.5h-8.3v1.4h8.3v12.7c0 .3-.3.5-.5.5h-1.7v1.5H83c.7 0 1.2-.6 1.3-1.3V9.1h1.4V7.7h-1.5V4.2zm7.5 3.1h10.6v2.1h3.8V6.9c0-.6-.4-1-1-1H99v-2h-4v2h-7.1v3.5h3.8V7.3zm14.8 16.4l-1.2-4c-.1-.3-.3-.4-.6-.4h-3.2l.9 3.1h-3.7v-6h7.3V15h-7.3v-2.8h7.3v-1.4H87.9v1.4h7.3V15h-7.3v1.4h7.3v6h-7.3v1.4l18.6-.1zm-54 10.2l.6 1.7h1.6l-3.1-8.4h-1.2l-3.1 8.4h1.6l.6-1.7h3zm-1.6-4.6l1.2 3.5h-2.4l1.2-3.5zm8.7-2.1v8.4h5.1v-1.2h-3.6v-7.2h-1.5zm10.6 0h1.5v8.4h-1.5v-8.4zm11 0h-3.3v8.4h1.5v-3.2h1.8c1.6 0 2.8-1.1 2.8-2.6-.1-1.6-1.2-2.6-2.8-2.6zm-.1 4h-1.7v-2.9h1.7c.8 0 1.3.7 1.3 1.4s-.5 1.5-1.3 1.5zm11.7 2.7l.6 1.7H95l-3.1-8.4h-1.2l-3.1 8.4h1.6l.6-1.7h3zm-1.5-4.6l1.2 3.5h-2.4l1.2-3.5zm12.1-2.1l-1.6 3.5-1.7-3.5h-1.7l2.6 4.9v3.5h1.5v-3.5l2.5-4.9h-1.6z"/>
</svg>