<svg xmlns="http://www.w3.org/2000/svg" width="122" height="76">
<path d="M19.2 64c0-.3.1-.6.1-1s0-.7-.1-1l2.1-1.7c.2-.1.2-.4.1-.6l-2-3.5c-.1-.2-.4-.2-.6-.2l-2.5 1c-.5-.4-1.1-.7-1.7-1l-.4-2.7c0-.2-.2-.4-.5-.4h-4c-.3 0-.5.2-.5.4L8.8 56c-.6.3-1.2.6-1.7 1l-2.5-1c-.2-.1-.5 0-.6.2l-2 3.5c-.1.2-.1.5.1.6L4.3 62c0 .3-.1.6-.1 1s0 .7.1 1l-2.1 1.6c-.2.2-.3.4-.1.7l2 3.5c.1.2.4.3.6.2l2.5-1c.5.4 1.1.7 1.7 1l.4 2.6c0 .2.2.4.5.4h4c.3 0 .5-.2.5-.4l.4-2.6c.6-.3 1.2-.6 1.7-1l2.5 1c.2.1.5 0 .6-.2l2-3.5c.1-.2.1-.5-.1-.6L19.2 64zm-7.5 2.5c-1.9 0-3.5-1.6-3.5-3.5s1.6-3.5 3.5-3.5 3.5 1.6 3.5 3.5-1.5 3.5-3.5 3.5zM67 58V34c0-2.2-1.8-4-4-4H39c-2.2 0-4 1.8-4 4v24c0 2.2 1.8 4 4 4h24c2.2 0 4-1.8 4-4zm-22-8l4.1 5.4L55 48l8 10H39l6-8zM27 38v28c0 2.2 1.8 4 4 4h28v-4H31V38h-4zm93.8-29.6l-13.4 13.4-2.8-2.8L118 5.6c2.7-2.7 2.7-7.2 0-9.9s-7.2-2.7-9.9 0L93.2 10.5c-1.6 1.6-1.6 4.1 0 5.7s4.1 1.6 5.7 0L111 4.1c.8-.8-.6-2.2-1.4-1.4L98.9 13.4l-2.8-2.8L106.7 0c2-2 5.1-2 7.1 0s2 5.1 0 7.1l-12 12c-3.1 3.1-8.2 3.1-11.3 0s-3.1-8.2 0-11.3L105.3-7c4.3-4.3 11.3-4.3 15.6 0s4.2 11.1-.1 15.4zM102 36l3 6h-4.5l-3-6h-3l3 6H93l-3-6h-3l3 6h-4.5l-3-6H81c-1.7 0-3 1.3-3 3v18c0 1.7 1.3 3 3 3h24c1.7 0 3-1.3 3-3V36h-6zM40 6H28v2h12V6zm0 4H28v2h12v-2zm-12 6h8v-2h-8v2zM42 6v8.2c-.3-.2-.7-.2-1-.2-1.7 0-3 1.3-3 3s1.3 3 3 3 3-1.3 3-3V8h3V6h-5zM59-4c-1.7 0-3 1.4-3 3v24c0 1.7 1.3 3 3 3h18c1.7 0 3-1.3 3-3V5l-9-9H59zM69.5 6.5v-8.3l8.3 8.3h-8.3z" fill="#f6f6d2"/>
</svg>