<svg xmlns="http://www.w3.org/2000/svg" viewBox="0 0 1431 737" width="129" height="66">
<path d="M107.1 511.2L66.5 703H96c28.7 0 52.5-6.5 70.8-19.2 18.8-13 34.8-53.6 40.1-76.8 5-24.1 5.3-64.5-7.6-76.9-13.4-12.7-34.8-18.8-64.3-18.8l-27.9-.1zm-55.9-16.8h79.6c23.2 0 43.2 1.4 59.3 4.2 16.5 2.7 29 6.5 38.6 12.2 17.6 10.3 29.5 23.3 36 39.5 6.5 16.4 7.2 35.2 2.7 56.9-5 21.9-14.1 41.1-27.6 57.2-13.4 15.9-31.7 29.1-54 39.3-12.7 5.8-28 10.4-45.5 13.1-17.6 2.6-38.7 4.2-63.1 4.2H33c-16.2-.3-28.7-13.6-23.8-31.9l42-194.7zm270.5 8.2H378c-15.5 74.1-31 144.3-46.3 218.4h-31.3c-19.7-.3-21.8-12.5-19-26.5l40.3-191.9zM357.6 702c26.5.2 88.8.7 118.4.7 37.3-2.1 45.7-15.7 50.1-41.4 2.9-15.5-25.1-31.6-54.4-42.6-71.7-25.8-81-81.6-20.4-110.9 23.1-10.8 49.7-13.7 82.5-13.7 8.5 0 17.9 1 27.8 2.9 10.6 1.8 24.7 4.6 43.6 9.7l-7.1 19c-35.2-5.8-52.8-9.9-80.4-9.9-12.1 0-21.5 3-29.2 5.8-31 11.5-15 43.1 10.5 56.4 32.2 16.6 67.5 24.7 79.2 42.4 6.9 10.9 12.1 22.3 9.2 37.2-4.1 20.8-15.6 32.9-37.8 45-22.8 12-51.5 18.3-86.6 18.3-24.5 0-84.1 0-109.3.2l3.9-19.1zm534.6-186.3L871.8 625c-4.2 20.7-9.4 42.5-2.6 51.7 14.3 20.6 68.6 18.3 84.7 2.3 13-13.2 22.7-35 27.5-60.4l19.5-105.2 59.3-.5-36.7 204.1-53.4.5 4.4-23.5c-22.7 19.5-49.5 27-88.4 27-31.7 0-50-8.1-63.7-24.1-13.2-16.1-16.8-39.2-11.4-70.1l21.4-111.1c-15.8-2.4-46.5-1.2-59.3-1.2-25.8 0-54.9 7.5-72.5 20.4-51.2 37.7-62.4 159.9 41.5 163.2 9.2.6 32.9-4.6 42.6-6.9l2.2-.5-3 21.6c-5 1-23.6 5.9-27.6 6.3-10.7 1.8-21.1 2.4-30.8 2.4-43.7 0-76.4-10.2-98.7-31.3-21.7-20.9-29.4-49.5-22.7-84.1 5.8-32.5 24.8-59.9 55.3-80.9 31-21 63.8-32.8 111.6-32.8 39.5 0 62.5 0 97.6 1.5 28.1 1 25.6 14.4 23.6 22.3m197-4.3l178.1-.5c6.6 24-1.4 46-24.6 66l-134.5 123.8H1252l-.1 20.3h-198.4c2.4-32.2 2.9-43.1 32.6-71.3l124.4-115.8h-124.2l2.9-22.5zm263.5 207.8l-17.2-.6-1.3-36.1 21 2.2 17.7 1.2-3.3 35.1-16.9-1.8zm17.8-63.8l-29.6-3.4c1.5-16.1-4.7-137.9-5.3-151.7l-1.9-24.6c8.1.4 6.8 0 42.1 4 21.4 1.7 24.8 3.5 31.3 3.5l-8.5 30.9c-7.1 24.1-26.3 132.7-28.1 141.3m-661-311.6l-12.1 85.3H678l9.7-67.5c-8.6 6.1-17.9 11.2-27.7 15.3l5.6-20.2c26.2-15.6 42.8-31.9 49.9-49 .6-1.6 0-2.3-1.8-2.3H671l2.3-15.1H696c-1-4.6-2.3-11.8-4-21.6h19.6c1.4 8.4 3 15.6 4.7 21.6h14.2c3 0 5 .4 5.9 1.1 1.1.7 1.6 2.3 1.6 4.9 0 3.1-1.1 7.4-3.4 13-4.3 11-12.7 22.5-25.1 34.5zm8.1 37.3c-2.3-10.6-4.4-21.9-6.3-34h16.6c1.6 6.7 4.7 18.1 9.5 34h-19.8zm70.6-46.5l-11 76.1h40.3l-2.9 16.7h-99.4l2.9-16.7H757l11.3-76.1h-31.9l2.9-16.7h31.5l7.6-50.8H798l-7.4 50.8h34.2l-2.7 16.7h-33.9zm237-45.9h-122l-17.1 123.8h127.3l-2.3 16.6H862.5l22.1-156.6h142.9l-2.3 16.2zm-12 10.5c-13.7 17.3-28.3 34.5-43.7 51.7 11.8 16.6 24.7 33.7 38.9 51.3h-25.7c-6.5-8.5-15.3-20.8-26.5-36.9-12.7 13.6-25 25.9-36.7 36.9H890c18.4-15.4 37-32.8 55.8-52.2-10.6-15.7-21.4-32.6-32.6-50.8h22.1c7.6 12.2 15.5 24.4 23.8 36.5 10.9-12.2 21.3-24.4 31.1-36.5h23zm200.5 5.9c4.2 0 7 .8 8.5 2.3 1.6 1.7 2.1 4.9 1.6 9.7-3.6 32.9-8.8 70.2-15.7 112h-36l-4.9-16.2h23.6c5.9-32.8 10.3-62.7 13.1-89.8.1-1.6-.7-2.3-2.3-2.3h-14.9c-7.3 39.8-19.7 76-37.3 108.4h-22.9l5.6-9h-13l-1.3-5.6c-.5-2.4-.9-4.2-1.3-5.4l-5.8 11.2H1054c14.2-27.6 25.9-54.5 35.3-80.6h-23.6l2.3-16h77.2l-2.2 16h-32.9c-7.8 21.2-17 42.8-27.5 64.8h32.8c-2.9-13.9-5.3-26.6-7.2-38h18.2c2.6 14.9 6.1 29.9 10.3 45.2 14.4-26.6 24.6-56.9 30.6-90.9h-18.9l-4.3-15.7h25.7c1.1-8 2.7-20.7 4.9-38h19.4c-1.1 10.1-2.8 22.7-5 38l24.6-.1zm-68.9-11.9h-66.4l2.3-16h66.4l-2.3 16zm267.6 4.7c6.4 0 9.1 4 8.1 11.9-5.6 43.7-11.1 83.5-16.4 119.3h-56l-4.7-17.6h41.8c5.3-33.8 9.7-64.9 13.1-93.2.4-2.2-.4-3.2-2.3-3.2h-43.6c-8.6 44.9-31 82.9-67 114.1h-31.3c42.4-34.1 67.9-72.1 76.5-114.1h-47.3l-4-17.1h54.4c1.4-15.2 2.3-25.5 2.5-30.8h21.8c-1.1 13.1-2.1 23.3-3.1 30.8l57.5-.1z" fill="#0b58ad"/>
<path d="M218.1 25.2c24.2 0 47.6 3.5 69.6 10.3 21 6.5 39.9 15.8 56 27.6 31.9 23.4 49.4 53.9 49.4 86.1 0 36.1-22.4 70.4-61.4 94.1l-13.2 8.1 7.6 13.5c4 7.1 6 14.6 6 22.3 0 14.8-7.6 28.9-21.3 39.8-14.8 11.7-34.8 18.2-56.2 18.2s-41.3-6.5-56.2-18.2c-13.7-10.9-21.3-25-21.3-39.8 0-1 0-2.1.1-3.1l1-13.7-13.4-3.1c-35.2-8-66.7-24.3-88.6-45.8-21.7-21.2-33.1-46.3-33.1-72.3 0-32.2 17.5-62.7 49.4-86.1 16.1-11.8 34.9-21.1 56-27.6 22-6.8 45.4-10.3 69.6-10.3m0-16c-105.5 0-191 62.7-191 140 0 62.8 56.4 116 134.2 133.7-.1 1.4-.2 2.9-.2 4.3 0 40.9 41.9 74 93.5 74s93.5-33.1 93.5-74c0-10.8-2.9-21-8.1-30.2 42.2-25.7 69.1-64.4 69.1-107.8 0-77.3-85.5-140-191-140zm144 381c20.1 0 37 11.9 37 26s-16.9 26-37 26-37-11.9-37-26 16.9-26 37-26m0-16c-29.3 0-53 18.8-53 42s23.7 42 53 42 53-18.8 53-42-23.7-42-53-42z" fill="#f4a62f"/>
</svg>