<svg xmlns="http://www.w3.org/2000/svg" viewBox="0 0 1431 737" width="129" height="66">
<path d="M107.1 511.2L66.5 703H96c28.7 0 52.5-6.5 70.8-19.2 18.8-13 34.8-53.6 40.1-76.8 5-24.1 5.3-64.5-7.6-76.9-13.4-12.7-34.8-18.8-64.3-18.8h-27.9zm-55.9-16.8h79.6c23.2 0 43.2 1.4 59.3 4.2 16.5 2.7 29 6.5 38.6 12.2 17.6 10.3 29.5 23.3 36 39.5 6.5 16.4 7.2 35.2 2.7 56.9-5 21.9-14.1 41.1-27.6 57.2-13.4 15.9-31.7 29.1-54 39.3-12.7 5.8-28 10.4-45.5 13.1-17.6 2.6-38.7 4.2-63.1 4.2H33c-16.2-.3-28.7-13.6-23.8-31.9l42-194.7zm270.5 8.2H378c-15.5 74.1-31 144.3-46.3 218.4h-31.3c-19.7-.3-21.8-12.5-19-26.5l40.3-191.9zM357.6 702c26.5.2 88.8.7 118.4.7 37.3-2.1 45.7-15.7 50.1-41.4 2.9-15.5-25.1-31.6-54.4-42.6-71.7-25.8-81-81.6-20.4-110.9 23.1-10.8 49.7-13.7 82.5-13.7 8.5 0 17.9 1 27.8 2.9 10.6 1.8 24.7 4.6 43.6 9.7l-7.1 19c-35.2-5.8-52.8-9.9-80.4-9.9-12.1 0-21.5 3-29.2 5.8-31 11.5-15 43.1 10.5 56.4 32.2 16.6 67.5 24.7 79.2 42.4 6.9 10.9 12.1 22.3 9.2 37.2-4.1 20.8-15.6 32.9-37.8 45-22.8 12-51.5 18.3-86.6 18.3-24.5 0-84.1 0-109.3.2l3.9-19.1zm534.6-186.3L871.8 625c-4.2 20.7-9.4 42.5-2.6 51.7 14.3 20.6 68.6 18.3 84.7 2.3 13-13.2 22.7-35 27.5-60.4l19.5-105.2 59.3-.5-36.7 204.1-53.4.5 4.4-23.5c-22.7 19.5-49.5 27-88.4 27-31.7 0-50-8.1-63.7-24.1-13.2-16.1-16.8-39.2-11.4-70.1l21.4-111.1c-15.8-2.4-46.5-1.2-59.3-1.2-25.8 0-54.9 7.5-72.5 20.4-51.2 37.7-62.4 159.9 41.5 163.2 9.2.6 32.9-4.6 42.6-6.9l2.2-.5-3 21.6c-5 1-23.6 5.9-27.6 6.3-10.7 1.8-21.1 2.4-30.8 2.4-43.7 0-76.4-10.2-98.7-31.3-21.7-20.9-29.4-49.5-22.7-84.1 5.8-32.5 24.8-59.9 55.3-80.9 31-21 63.8-32.8 111.6-32.8 39.5 0 62.5 0 97.6 1.5 28.1 1 25.6 14.4 23.6 22.3m197-4.3l178.1-.5c6.6 24-1.4 46-24.6 66l-134.5 123.8H1252l-.1 20.3h-198.4c2.4-32.2 2.9-43.1 32.6-71.3l124.4-115.8h-124.2l2.9-22.5zm263.5 207.8l-17.2-.6-1.3-36.1 21 2.2 17.7 1.2-3.3 35.1-16.9-1.8zm17.8-63.8l-29.6-3.4c1.5-16.1-4.7-137.9-5.3-151.7l-1.9-24.6c8.1.4 6.8 0 42.1 4 21.4 1.7 24.8 3.5 31.3 3.5l-8.5 30.9c-7.1 24.1-26.3 132.7-28.1 141.3M739.9 297.7c.5-2.8.2-4.6-.8-5.6-1.5-.5-3.7-.7-6.7-.7h-9.7c-2-6.5-3.8-14-5.3-22.4h-21l4.5 22.4h-22.5l-2.3 15.4h38.2c2 0 2.7.7 2.3 2.1-2 4.2-5 9.1-9 14.7-4.5 5.6-10.3 11.4-17.2 17.5-7.5 6.5-15 11.9-22.5 16.1l-6 20.3c8-3.3 16.5-8.2 25.5-14.7l-9.8 66.4h21l12.7-86c12-11.6 20.2-22.6 24.7-32.9 2.6-4.6 3.9-8.8 3.9-12.6zm-11.3 50.4h-17.2l6.8 32.9h20.2c-4-11.7-7.3-22.7-9.8-32.9zm97.1-29.3h-33.8l7-50.6h-19.7l-7 50.6h-31.6l-2.8 16.9h31.6l-11.3 75.2h-38.7l-2.8 16.9h99.1l2.8-16.9h-39.9l10.5-75.2h34.5l2.1-16.9zm36.7 109h143.1l2-15.6H884l17-120.9h119l2.6-16.3h-138l-22.2 152.8zm118.1-127.5L951 335.1c-6.9-11.2-13.9-22.8-20.8-34.8h-24.3l29.5 51.6-46.8 48.5h33.8l26-28.4 19.9 28.4h29.5L963.1 354l44.2-53.7h-26.8zm209.5 4.4c1.9-13.1 3.5-25.8 4.9-38h-19.7c-1.4 12.2-3.1 24.9-4.9 38H1145l4.2 15.5h19c-2.8 15.5-6.8 30.9-12 46.4-5.2 15.9-11.5 30.9-19 45-3.8-15-7-30.2-9.8-45.7h-18.3c1.9 11.7 4.2 24.4 7 38h-33c10.8-22 20.1-43.6 28.1-64.7h32.3l2.8-16.2H1069l-2.8 16.2h23.9c-9.4 26.3-21.1 53.2-35.2 80.9h56.3l6.3-11.3 2.1 11.3h13.4l-5.6 8.4h22.5c18.3-32.8 30.7-68.9 37.3-108.3h14.8c1.4 0 2.3.2 2.8.7v2.1c-2.8 26.7-7.3 56.5-13.4 89.3h-23.2l4.2 16.2 36.6.7c6.6-42.2 11.7-79.7 15.5-112.5.5-4.7 0-8-1.4-9.8-1.4-1.4-4.2-2.1-8.4-2.1l-24.7-.1zm-108.9-28.1l-2.1 16.2h66.8l2.1-16.2h-66.8zm273.9 21.8l2.8-30.9H1336c0 8-.9 18.3-2.8 30.9h-54.1l4.2 16.9h47.1c-8 41.7-33.3 79.5-75.9 113.2h30.9c17.8-15 32.6-32.6 44.3-52.7 11.3-19.7 18.7-39.8 22.5-60.5h43.6c1.9 0 2.8 1.2 2.8 3.5l-13.4 92.1H1343l4.9 17.6h56.3l16.2-118.1c.5-3.7 0-6.8-1.4-9.1-1.4-1.9-3.5-2.8-6.3-2.8l-57.7-.1z" fill="#0b58ad"/>
<path d="M218.1 25.2c24.2 0 47.6 3.5 69.6 10.3 21 6.5 39.9 15.8 56 27.6 31.9 23.4 49.4 53.9 49.4 86.1 0 36.1-22.4 70.4-61.4 94.1l-13.2 8.1 7.6 13.5c4 7.1 6 14.6 6 22.3 0 14.8-7.6 28.9-21.3 39.8-14.8 11.7-34.8 18.2-56.2 18.2s-41.3-6.5-56.2-18.2c-13.7-10.9-21.3-25-21.3-39.8 0-1 0-2.1.1-3.1l1-13.7-13.4-3.1c-35.2-8-66.7-24.3-88.6-45.8-21.7-21.2-33.1-46.3-33.1-72.3 0-32.2 17.5-62.7 49.4-86.1 16.1-11.8 34.9-21.1 56-27.6 22-6.8 45.4-10.3 69.6-10.3m0-16c-105.5 0-191 62.7-191 140 0 62.8 56.4 116 134.2 133.7-.1 1.4-.2 2.9-.2 4.3 0 40.9 41.9 74 93.5 74s93.5-33.1 93.5-74c0-10.8-2.9-21-8.1-30.2 42.2-25.7 69.1-64.4 69.1-107.8 0-77.3-85.5-140-191-140zm144 381c20.1 0 37 11.9 37 26s-16.9 26-37 26-37-11.9-37-26 16.9-26 37-26m0-16c-29.3 0-53 18.8-53 42s23.7 42 53 42 53-18.8 53-42-23.7-42-53-42z" fill="#f4a62f"/>
</svg>