<svg xmlns="http://www.w3.org/2000/svg" viewBox="0 0 430 124" height="40">
<path d="M90.6 117c-2.5-1.9-6.6-3.4-9.8-4.4-6.3 5.3-16 8.9-26.6 8.9s-20.3-3.6-26.6-8.9c-3.2 1-7.3 2.5-9.8 4.4-2.2 1.6-1.9 3.3-1.5 3.9 1.7 2.9 29.6 1.9 37.9 1 8.3.9 36.2 1.9 37.9-1 .4-.6.7-2.3-1.5-3.9zM78 52H30V38h48v14z" fill="#f9ae08"/>
<path d="M54.2 1.2C27.1 1.2 16 24.7 16 48.1c0 1.4.1 4.1.1 4.2 0 0 .5.5 1.4.8 4.4 1.2 18.7 4.8 36.6 4.9h.2c17.5-.1 31.5-3.5 36.3-4.8 1.1-.3 1.7-.9 1.7-.9 0-.2.1-2.8.1-4.2 0-23.4-11-46.9-38.2-46.9zm23 42.8c-.8 1.2-11.8 7.2-23.1 7.2H54c-11.3 0-22.3-6-23.1-7.2-.1-.2-.1-.5 0-.7 1-2.2 10.9-4.6 23.2-4.6h.1c12.3 0 22.2 2.4 23.2 4.6.1.3-.1.6-.2.7zm24.6 33.5c-1.1-3.5-2.6-7.6-4.1-11.5 0 0-.9-.1-1.3 0-13.5 3.9-29.8 6.4-42.2 6.3h-.1c-12.4.1-28.6-2.3-42-6.2-.5-.2-1.5-.1-1.5-.1-1.5 3.9-3 8-4.1 11.5C1.3 94.2 3 101 4.3 101.2 7 101.5 15 88.7 15 88.7c0 13.1 11.8 33.2 38.8 33.3h.7c27-.2 38.8-20.3 38.8-33.3 0 0 7.9 12.9 10.7 12.5 1.3-.2 3-7.1-2.2-23.7m90.7-15.3c0-22.6-13.7-37.7-34.1-37.7s-34.1 15.2-34.1 37.8S138 100 158.4 100c7.7 0 14.4-2.2 19.8-6l3.2 4.1h7.7c.3 0 .5-.4.3-.6l-6.2-8c5.9-6.7 9.3-16 9.3-27.3zm-13.7 21.6l-6.8-8.6h-7.8c-.3 0-.5.4-.3.6l9.9 12.5c-4.2 2.9-9.4 4.4-15.4 4.4-16.6 0-27.3-12-27.3-30.5s10.7-30.5 27.3-30.5 27.3 12 27.3 30.5c0 9-2.5 16.3-6.9 21.6m88.4-21.6c0-22.6-13.7-37.7-34.1-37.7S199 39.7 199 62.3s13.7 37.7 34.1 37.7c7.7 0 14.4-2.2 19.8-6l3.2 4.1h7.7c.3 0 .5-.4.3-.6l-6.2-8c5.9-6.7 9.3-16 9.3-27.3zm-13.7 21.6l-6.8-8.6h-7.8c-.3 0-.5.4-.3.6l9.9 12.5c-4.2 2.9-9.4 4.4-15.4 4.4-16.6 0-27.3-12-27.3-30.5s10.7-30.5 27.3-30.5 27.3 12 27.3 30.5c0 9-2.5 16.3-6.9 21.6m41.3-59c.1-.3-.1-.5-.4-.5h-6.7c-3.3 8.9-6.7 17.4-10.5 26.6-.1.3.1.5.3.5h5.7v3.9h6.4v10.5h-9.1V72h9.1v19.7c-2.7 1.8-4.6 3.1-4.6 3.1l3.4 5.2 17.1-11.3v-6.8c0-.3-.3-.5-.6-.3-.1.1-4.1 2.7-8.5 5.6V72.1h9.1v-6.2h-9.1V55.4h7.4v-6.2h-18.5c1.2-3 2.4-6 3.6-8.9h16.6v-6.2h-14.1c1.1-3.2 2.2-6.2 3.4-9.3m45.7 10.5v-6.1s-12.7-4.5-12.9-4.5c-.2-.1-.5.1-.5.4v6.1s12.7 4.5 12.9 4.5c.3.1.5-.1.5-.4m8.8 49.1h-7.1l-3 5.6c-2.5-2.2-4.7-5.1-6.5-8.5 4.5-2.9 8.9-5.8 13.2-8.8v-6.8c0-.3-.3-.5-.6-.3-4.9 3.4-10 6.8-15.2 10.2-1.5-3.9-2.8-8.2-3.8-12.8 10.1-1.5 20.4-3.1 20.4-3.1V54c0-.2-.2-.4-.5-.4-.2 0-10.9 1.6-21.1 3.2-.6-3.5-1.1-7-1.4-10.6l20.7-2.3v-5.8c0-.2-.2-.4-.4-.4s-11 1.2-20.9 2.3c-.4-5.6-.7-11.2-.9-16.4h-6.8c.2 5.6.4 11.4.9 17.1-5.3.6-9.3 1-9.3 1v5.8c0 .2.2.4.4.4.1 0 4.1-.4 9.4-1 .4 3.7.9 7.3 1.5 10.9-6.4 1-11.3 1.7-11.3 1.7v5.9c0 .3.2.4.4.4.1 0 5.4-.8 12.1-1.8 1.2 5.6 2.8 10.8 4.7 15.5-5.5 3.5-11.1 6.9-16.9 10.3v6.6c0 .3.3.5.6.3 6.5-3.8 12.8-7.6 19-11.5 2.6 4.7 5.9 8.7 9.9 11.6 0 0 .1 0 .1.1 1.6 1.2 3.9 2.5 4.5 2.8.2.1.4 0 .5-.2.1-.1 6.2-11.8 7.7-14.6.1-.2-.1-.5-.3-.5m23.6 7.1V73.1h30V47.4h-34.6c1.7-2.8 3.4-5.8 5.2-8.9h40.3v40.4h-10c-.3 0-.4.3-.4.5.1.2 1.7 5.7 1.7 5.7h16.1V31.6h-43.8c1.3-2.3 2.7-4.8 4.1-7.2.1-.3-.1-.6-.3-.6h-8c-7.4 13.2-13.8 24.2-20 34.1-.2.3 0 .6.3.6h8.1c1.3-2.1 2.5-4.2 3.8-6.3v46.2h60.3v-6.8l-52.8-.1zm0-37.9h22.5v13.3h-22.5V53.6z"/>
<path d="M50.8 25.7c-.2-5.4-3.3-9.6-7-9.4s-6.5 4.7-6.3 10c.2 5.4 3.3 9.6 7 9.4 3.7-.1 6.5-4.6 6.3-10zm-4.3 5c-1.6.2-3-1.3-3.2-3.4s1-4 2.6-4.2c1.6-.3 3 1.3 3.2 3.4s-1 4-2.6 4.2zm18.1-14.3c-3.7-.1-6.8 4.1-7 9.4-.2 5.4 2.6 9.8 6.3 10 3.7.1 6.8-4.1 7-9.4.2-5.4-2.6-9.8-6.3-10zm3.6 10.3c-.3 1-1.1.9-1.5.7-.3-.1-3.5-2.2-6.4.9-.2.2-.6.3-.9 0-.3-.2-.4-.8-.2-1.1.3-.6 2.5-3.6 7.1-2.5 1.2.3 1.8.7 1.9.9.2.3.2.6 0 1.1zM54.3 71.5c-8.6.1-18.8-1-28.7-3-.9 4.9-1.4 11.1-.9 18.5 1.1 18.6 12.2 30.4 29.3 30.5h.6c17.1-.2 28.2-11.9 29.3-30.5.4-7.4-.1-13.6-.9-18.5-10 2-20.3 3.1-28.7 3" fill="#fff"/>
<path d="M92.3 52.3s-16.4 5.2-38 5.3h-.1c-21.6-.1-38-5.3-38-5.3L10.7 66c6.1 1.8 12.8 3.4 19.5 4.5v17.8s8.4 1.7 16.8.5V72.4c2.5.1 4.9.2 7.2.2h.1c12.8.2 29.8-2.5 43.5-6.6l-5.5-13.7z" fill="#ea1c26"/>
</svg>