<svg xmlns="http://www.w3.org/2000/svg" viewBox="0 0 350 100" height="40">
<path d="M35.4 62.3c-.4.2-.8.3-1.3.3-1.1 0-2-.6-2.5-1.5l-.2-.4-7.9-17.2c-.1-.2-.1-.4-.1-.6 0-.8.6-1.4 1.4-1.4.3 0 .6.1.9.3l9.3 6.6c.7.4 1.5.7 2.4.7.5 0 1-.1 1.5-.3l43.6-19.4c-7.9-9.3-20.8-15.3-35.3-15.3C23.3 14.1 4 30.2 4 50.1c0 10.8 5.8 20.6 14.9 27.2.7.5 1.2 1.4 1.2 2.3 0 .3-.1.6-.2.9-.7 2.7-1.9 7.1-1.9 7.3-.1.3-.2.7-.2 1.1 0 .8.6 1.4 1.4 1.4.3 0 .6-.1.8-.3l9.4-5.5c.7-.4 1.5-.7 2.3-.7.4 0 .9.1 1.3.2 4.4 1.3 9.2 2 14.1 2 23.8 0 43.2-16.1 43.2-36 0-6-1.8-11.7-4.9-16.7L35.7 62.1l-.3.2z" fill="#09bb07"/>
<path d="M146.4 28h-2.9v10.2h-5.4V23.7h-2.9v14.5h-5.8V28h-2.9v13.1h19.9V28zm-19 18.8H145v2.9h-17.6v-2.9zm3.9 14.2v-2.6h8.9v6.5c-.1 2.3-.2 2.9-1 4L141 72l.1-.1c1.6-1.3 4.2-3.5 7.9-6.8h.1l-1.4-2.4-.1-.1-4.5 3.8v-11h-14.9v4.4c.4 6-1.1 10.3-4.5 12.8h-.1l1.6 2.8.1.1.1-.1c4.2-3.3 6.2-8.2 5.9-14.4zm-19.1-23.6l1.8 3c4.5-4.5 8.4-9.9 11.2-15.8l-2.7-1.6c-2.8 5.8-6.4 10.7-10.3 14.4zm-.8 18.3l1.6 2.8.1.1.1-.1c1.7-2 3.4-4.1 5-6.3v25.2h2.9v-30c1.3-2.3 2.6-4.9 3.8-7.8v-.1l-2.8-1.6v.1c-2.8 6.8-6.3 12.7-10.7 17.7zm56.3-19.1v-2.9h-12.9c1.1-3.4 2.4-7.3 2.8-10.7h-3c-1.9 8.8-4.8 16.5-8.5 22.5l1.8 3.2 1.3-2.7c.5-.9.9-1.6 1.2-2.2.9 7.8 2.5 14.1 4.7 18.7-2.1 3.7-5.4 7.5-9.8 11.4h-.1l1.7 2.9.1.1.1-.1c4.6-4.3 7.8-8.1 9.5-11.2 1.9 3.4 5.2 7.5 8.9 11.4l.1.1 1.7-3V74h-.1c-4-3.9-7.2-7.9-9-11.3 3.3-6 5.3-14.8 6.1-26.2h3.4v.1zM157 59.1c-1.9-4.9-3.3-11.6-4.2-19.9.3-.9.7-1.8 1.1-2.6h7.8c-.6 9.4-2.2 17-4.7 22.5zm37.2-19.4h32.4v2.9h-32.4v-2.9zm0 9h32.4v3.1h-32.4v-3.1zm31.6 26.9V58H195v17.5h30.8v.1zm-27.6-14.7h24.5v11.7h-24.5V60.9zm-12.9 16.5V37.1c1.8-4 3.5-8.2 4.8-12.5l-2.9-1.7c-2.9 10.1-7 19.2-12.3 26.9l1.7 3c1.8-2.7 3.7-5.9 5.6-9.2v33.9h3.1v-.1zm44.7-47h-19l2-1.2h.1v-.1c-.2-.5-.8-1.8-1.5-3.2-.6-1.3-1.2-2.5-1.5-3.2v-.1l-2.9 1.7v.1c1 1.9 1.9 3.7 2.7 5.4.1.2.2.4.2.5h-19v3.1H230v-3zm58.8 3.1v-3.1h-24.7v-7.9h-3.2v7.9h-24.5v3.1h24.5v10.3H245v2.8s2.4 5.5 7.4 11.5c2 2.4 4.3 4.9 7.3 7.4-5.6 3.4-12.5 6.7-22.2 8.6l1.8 3.2s11.5-2.4 22.9-9.8c1.5 1 8.6 6.6 21.8 9.8h.1l1.3-2.4s-3.4-.9-8.6-2.9c-3.6-1.4-8.1-3.5-12.4-6.4 6.4-4.7 12.1-11.5 15.5-20.2l-2.6-1.5H264V33.5h24.8zm-12.5 13s-3.2 9.1-14.1 16.9c-5.2-4-10.6-9.8-14-16.9h28.1zM303 77.4V37.1c1.8-4 3.5-8.2 4.8-12.5l-2.9-1.7c-2.9 10.1-7 19.2-12.3 26.9l1.7 3c1.8-2.7 3.7-5.9 5.6-9.2v33.9h3.1v-.1zm25.6-4h-1.8v3.1h2.7c3.1 0 4.7-.7 6.1-2 1.3-1.3 1.9-3.2 1.8-5.8V39.6h8.4v-3.1h-8.4V23.1h-3.1v13.4h-25.8v3.1h25.8v29.1c-.1 3.2-2 4.7-5.7 4.7zm-7-10.4l3.1-1.8c-1.7-3.4-3.9-7.9-6.6-13.4l-2.8 1.7c1.8 3.7 3.9 8.2 6.3 13.5z"/>
</svg>