<svg xmlns="http://www.w3.org/2000/svg" width="129" height="23"><path d="M9 3.2L5.3 20.7H8c2.6 0 4.8-.6 6.5-1.8 1.7-1.2 3.2-4.9 3.7-7 .5-2.2.5-5.9-.7-7-1.2-1.2-3.2-1.7-5.9-1.7H9zM3.9 1.7h7.3c2.1 0 3.9.1 5.4.4 1.5.2 2.6.6 3.5 1.1 1.6.9 2.7 2.1 3.3 3.6.6 1.5.7 3.2.3 5.2-.5 2-1.3 3.8-2.5 5.2-1.2 1.5-2.9 2.7-4.9 3.6-1.2.5-2.6.9-4.2 1.2-1.6.2-3.5.4-5.8.4h-4c-1.5 0-2.6-1.2-2.2-2.9L3.9 1.7zm24.7.7h5.1c-1.4 6.8-2.8 13.2-4.2 19.9h-2.9c-1.8 0-2-1.1-1.7-2.4l3.7-17.5zm3.3 18.2c2.4 0 8.1.1 10.8.1 3.4-.2 4.2-1.4 4.6-3.8.3-1.4-2.3-2.9-5-3.9-6.5-2.4-7.4-7.5-1.9-10.1 2.1-1 4.5-1.3 7.5-1.3.8 0 1.6.1 2.5.3 1 .2 2.3.4 4 .9l-.6 1.7c-3.2-.5-4.8-.9-7.3-.9-1.1 0-2 .3-2.7.5-2.8 1.1-1.4 3.9 1 5.2 2.9 1.5 6.2 2.3 7.2 3.9.6 1 1.1 2 .8 3.4-.4 1.9-1.4 3-3.5 4.1-2.1 1.1-4.7 1.7-7.9 1.7h-10l.5-1.8zm48.8-17l-1.9 10c-.4 1.9-.9 3.9-.2 4.7 1.3 1.9 6.3 1.7 7.7.2 1.2-1.2 2.1-3.2 2.5-5.5l1.8-9.6H96L92.7 22h-4.9l.4-2.1c-2.1 1.8-4.5 2.5-8.1 2.5-2.9 0-4.6-.7-5.8-2.2-1.2-1.5-1.5-3.6-1-6.4l2-10.1c-1.4-.2-4.2-.1-5.4-.1-2.4 0-5 .7-6.6 1.9C58.6 8.8 57.5 20 67 20.3c.8.1 3-.4 3.9-.6h.2l-.3 2c-.5.1-2.2.5-2.5.6-1 .2-1.9.2-2.8.2-4 0-7-.9-9-2.9-2-1.9-2.7-4.5-2.1-7.7.5-3 2.3-5.5 5.1-7.4 2.8-1.9 5.8-3 10.2-3 3.6 0 5.7 0 8.9.1 2.6.1 2.3 1.3 2.1 2m18-.4H115c.6 2.2-.1 4.2-2.2 6l-12.3 11.3h13.1v1.9H95.5c.2-2.9.3-3.9 3-6.5l11.4-10.6H98.5l.2-2.1zm24.1 19l-1.6-.1-.1-3.3 1.9.2 1.6.1-.3 3.2-1.5-.1zm1.6-5.8l-2.7-.3c.1-1.5-.4-12.6-.5-13.9l-.1-2.2c.7 0 .6 0 3.8.4 2 .2 2.3.3 2.9.3l-.8 2.8c-.7 2.2-2.4 12.1-2.6 12.9" fill="#fff"/></svg>